# xmcd
#
# Track frame offsets: 
#        150
#        25981
#        40908
#        62763
#        81573
#        98570
#        123763
#        141058
#        157206
#        175051
#        190504
#        211336
#        225736
#        243046
#        261646
#
# Disc length: 3755 seconds
#
# Revision: 3
# Processed by: cddbd v1.5.2PL0 Copyright (c) Steve Scherf et al.
# Submitted via: ExactAudioCopy v1.0b3
#
DISCID=ca0ea90f
DTITLE=B'z - B'z The Best ULTRA Treasure Disc 2 BMCV-8026-28
DYEAR=1900
DGENRE=JPop
TTITLE0=Brotherhood
TTITLE1=スイマーよ!!
TTITLE2=ハピネス
TTITLE3=ONE
TTITLE4=F・E・A・R -2008 Mix-
TTITLE5=ながい愛
TTITLE6=ROCK man
TTITLE7=DEVIL
TTITLE8=New Message
TTITLE9=アラクレ
TTITLE10=ゆるぎないものひとつ
TTITLE11=ピエロ
TTITLE12=BURN -フメツノフェイス-
TTITLE13=Home
TTITLE14=グローリーデイズ
EXTD=
EXTT0=
EXTT1=
EXTT2=
EXTT3=
EXTT4=
EXTT5=
EXTT6=
EXTT7=
EXTT8=
EXTT9=
EXTT10=
EXTT11=
EXTT12=
EXTT13=
EXTT14=
PLAYORDER=
